<?xml version="1.0" encoding="UTF-8" standalone="no"?>
<!-- Generator: Adobe Illustrator 17.0.0, SVG Export Plug-In . SVG Version: 6.00 Build 0)  -->
<!DOCTYPE svg  PUBLIC '-//W3C//DTD SVG 1.1//EN'  'http://www.w3.org/Graphics/SVG/1.1/DTD/svg11.dtd'>
<svg id="Ebene_1" xmlns="http://www.w3.org/2000/svg" xml:space="preserve" height="131px" viewBox="0 0 257.833 131" width="257.83px" version="1.1" y="0px" x="0px" xmlns:xlink="http://www.w3.org/1999/xlink" enable-background="new 0 0 257.833 131">
	<rect y="96.161" x="4.206" height="1.85" width="242.84" fill="#F9B032"/>
<path d="m4.143 41.469h13.885c6.307 0 12.984 1.748 12.984 9.168 0 3.338-2.121 6.2-4.029 7.419 2.703 1.271 5.354 3.232 5.354 8.107 0 7.737-6.359 10.493-13.726 10.493h-14.468v-35.187zm7.049 14.255h7.26c3.338 0 5.351-1.325 5.351-4.398 0-2.809-2.066-4.134-5.351-4.134h-7.26v8.532zm0 15.209h7.789c4.082 0 6.148-1.536 6.148-4.77 0-3.285-2.066-4.716-6.465-4.716h-7.473v9.486zm42.504 6.359c-10.652 0-17.275-7.154-17.275-18.389s6.623-18.071 17.275-18.071 17.275 6.837 17.275 18.071-6.623 18.389-17.275 18.389zm0-30.842c-5.564 0-9.963 3.868-9.963 12.453 0 8.532 4.398 12.771 9.963 12.771 5.617 0 9.963-4.239 9.963-12.771 0-8.585-4.346-12.453-9.963-12.453zm36.994 16.269h-6.573v13.938h-7.207v-35.188h10.811c11.766 0 16.641 3.073 16.641 10.545 0 3.975-2.066 7.42-6.57 9.274l8.213 15.368h-8.002l-7.308-13.937zm-6.572-15.528v9.857h5.141c5.459 0 7.844-1.484 7.844-4.981 0-4.134-3.445-4.876-8.215-4.876h-4.77zm35.402-5.722c11.34 0 20.455 3.444 20.455 17.594s-9.115 17.594-20.455 17.594h-9.01v-35.188h9.01zm-0.37 5.722h-1.59v23.741h1.59c6.518 0 13.514-1.166 13.514-11.87 0-10.705-6.99-11.871-13.51-11.871zm35.46-5.722h7.1l13.355 35.188h-7.631l-2.598-7.26h-13.777l-2.545 7.26h-7.207l13.32-35.188zm-1.49 22.204h9.645l-4.822-13.567-4.82 13.567zm60.62-58.062c-19.739 0-35.798 16.06-35.798 35.799s16.059 35.798 35.798 35.798c19.74 0 35.8-16.059 35.8-35.798s-16.06-35.799-35.8-35.799zm0 67.597c-17.533 0-31.798-14.265-31.798-31.798 0-17.534 14.265-31.799 31.798-31.799 17.534 0 31.8 14.265 31.8 31.799 0 17.533-14.26 31.798-31.8 31.798zm-16.33-46.998l-2.828 2.828 16.883 16.883v14.242h16.989v-16.988h-14.079l-16.96-16.965zm18.05 20.965h8.989v8.988h-8.989v-8.988zm-5.39-11.496l-11.046-11.045 2.828-2.828 11.046 11.045-2.83 2.828zm4.5-4.482l-11.046-11.045 2.828-2.828 11.046 11.045-2.83 2.828zm-205.6 80.383h1.333l4.523 11.641c0.216 0.559 0.342 0.775 1.009 0.829l0.396 0.036v0.631h-4.902v-0.631l0.865-0.054c0.739-0.055 0.883-0.234 0.648-0.829l-0.955-2.505h-5.241l-0.793 2.108c-0.378 0.973-0.216 1.189 0.541 1.226l0.775 0.054v0.631h-4.128v-0.631l0.414-0.036c0.703-0.072 0.811-0.324 1.244-1.459l4.271-11.01zm-1.928 8.08h4.451l-2.234-5.857-2.217 5.86zm24.981-8v3.911h-0.685l-0.252-1.55c-0.216-1.37-0.504-1.424-2.163-1.424h-4.217v4.884h5.244v1.009h-5.244v5.01c0 0.343 0.108 0.451 0.523 0.505l1.496 0.072v0.649h-5.406v-0.649l0.973-0.072c0.396-0.019 0.523-0.145 0.523-0.486v-10.65c0-0.343-0.126-0.469-0.523-0.505l-0.973-0.072v-0.631h10.704zm5.518 0c0.63 0 3.514-0.018 4.685-0.018 3.604 0 5.623 1.027 5.623 3.586 0 1.676-0.973 2.793-2.721 3.334l2.739 4.596c0.378 0.63 0.577 0.864 1.171 0.883l0.613 0.036v0.649h-3.063l-0.901-1.622-2.451-4.198c-0.324 0.036-0.667 0.036-1.009 0.036h-1.297v4.559c0 0.343 0.108 0.451 0.522 0.505l1.153 0.072v0.649h-5.063v-0.649l0.973-0.072c0.396-0.019 0.522-0.145 0.522-0.486v-10.65c0-0.343-0.126-0.469-0.522-0.505l-0.973-0.072v-0.65zm3.388 0.92v5.42h1.514c2.181 0 3.406-0.829 3.406-2.739 0-1.892-1.226-2.684-3.406-2.684h-1.514zm18.692 12.14h-4.883v-0.649l0.973-0.072c0.396-0.019 0.523-0.145 0.523-0.486v-10.65c0-0.343-0.126-0.469-0.523-0.505l-0.973-0.072v-0.631h4.883v0.631l-0.973 0.072c-0.414 0.036-0.522 0.162-0.522 0.505v10.65c0 0.342 0.108 0.468 0.522 0.486l0.973 0.072v0.65zm12.275-13.37c2.865 0 5.19 1.514 5.73 4.289l-1.928 0.018c-0.27-2.126-1.622-3.334-3.784-3.334-2.595 0-4.253 2.055-4.253 5.803 0 3.694 1.622 5.856 4.217 5.856 2.252 0 3.586-1.188 3.875-3.333l1.928 0.018c-0.559 2.829-2.938 4.289-5.803 4.289-3.928 0-6.271-2.739-6.271-6.83 0-4.14 2.487-6.79 6.289-6.79zm16.187 0.23h1.333l4.523 11.641c0.216 0.559 0.342 0.775 1.009 0.829l0.396 0.036v0.631h-4.902v-0.631l0.865-0.054c0.739-0.055 0.883-0.234 0.648-0.829l-0.955-2.505h-5.242l-0.793 2.108c-0.378 0.973-0.216 1.189 0.541 1.226l0.775 0.054v0.631h-4.127v-0.631l0.415-0.036c0.703-0.072 0.811-0.324 1.244-1.459l4.27-11.01zm-1.929 8.08h4.451l-2.234-5.857-2.217 5.86z" fill="#084FA1"/>
</svg>
